<svg id="emoji_events-24px" xmlns="http://www.w3.org/2000/svg" width="24" height="24" viewBox="0 0 24 24">
  <g id="Group_2179" data-name="Group 2179">
    <rect id="Rectangle_912" data-name="Rectangle 912" width="24" height="24" fill="none"/>
    <rect id="Rectangle_913" data-name="Rectangle 913" width="24" height="24" fill="none"/>
  </g>
  <g id="Group_2180" data-name="Group 2180">
    <path id="Path_1475" data-name="Path 1475" d="M19,5H17V4a1,1,0,0,0-1-1H8A1,1,0,0,0,7,4V5H5A2.006,2.006,0,0,0,3,7V8a4.991,4.991,0,0,0,4.39,4.94A5.009,5.009,0,0,0,11,15.9V19H8a1,1,0,0,0,0,2h8a1,1,0,0,0,0-2H13V15.9a5.009,5.009,0,0,0,3.61-2.96A4.991,4.991,0,0,0,21,8V7A2.006,2.006,0,0,0,19,5ZM7,10.82A3.01,3.01,0,0,1,5,8V7H7ZM19,8a3.01,3.01,0,0,1-2,2.82V7h2Z" fill="#cacccf"/>
  </g>
</svg>
