<svg width="30" height="30" viewBox="0 0 30 30" fill="none" xmlns="http://www.w3.org/2000/svg">
<g clip-path="url(#clip0)">
<path d="M22.3514 19.7114L22.3522 8.1277C22.3514 7.44542 21.7948 6.89692 21.1215 6.89608C20.4426 6.89695 19.8907 7.44881 19.8903 8.12727L19.8907 19.7114C19.8907 20.3901 20.4423 20.9418 21.121 20.9418C21.8015 20.9418 22.3514 20.3919 22.3514 19.7114Z" fill="#CACCCF"/>
<path d="M18.6599 8.49835L18.3978 8.67326C16.5548 9.90213 14.3495 10.615 12.1575 10.7884L12.1575 17.0904C14.3491 17.2638 16.5544 17.9366 18.3978 19.1651L18.6603 19.3404L18.6599 8.49835Z" fill="#CACCCF"/>
<path d="M10.9271 10.8633L6.62046 10.8629C5.60276 10.8629 4.77454 11.6869 4.77454 12.7088L4.77454 15.1695C4.77454 16.1872 5.59856 17.0154 6.62046 17.0154L10.9271 17.0154L10.9271 10.8633ZM7.8508 14.5548C7.51095 14.5548 7.23563 14.2794 7.23563 13.9396C7.23563 13.5997 7.51095 13.3244 7.8508 13.3244L9.08115 13.3244C9.421 13.3244 9.69632 13.5997 9.69632 13.9396C9.69632 14.2794 9.421 14.5548 9.08115 14.5548L7.8508 14.5548Z" fill="#CACCCF"/>
<path d="M10.3588 21.2166L11.5424 21.2166C12.5643 21.2167 13.3887 20.3889 13.3879 19.3712L13.3882 18.4918C12.9821 18.412 12.5727 18.3573 12.1579 18.3209L12.1571 19.3716C12.158 19.7098 11.8847 19.9854 11.5424 19.9863L10.3393 19.9863L10.3117 18.2458L7.85094 18.2458L7.91214 22.1322C7.91127 22.8068 8.4624 23.3617 9.14248 23.3617C9.82137 23.3617 10.3732 22.8098 10.3733 22.1309L10.3588 21.2166Z" fill="#CACCCF"/>
<path d="M25.0305 10.0599C24.79 9.81945 24.4009 9.81945 24.1604 10.0599L23.2903 10.93C23.0499 11.1704 23.0499 11.5596 23.2903 11.8001C23.5308 12.0405 23.92 12.0405 24.1604 11.8001L25.0305 10.93C25.271 10.6895 25.271 10.3004 25.0305 10.0599Z" fill="#CACCCF"/>
<path d="M25.0305 17.0205L24.1604 16.1504C23.9199 15.91 23.5308 15.91 23.2903 16.1504C23.0498 16.3909 23.0498 16.78 23.2903 17.0205L24.1604 17.8906C24.4008 18.131 24.79 18.131 25.0305 17.8906C25.2709 17.6501 25.2709 17.261 25.0305 17.0205Z" fill="#CACCCF"/>
<path d="M26.9506 13.9752C26.9506 13.6353 26.6753 13.36 26.3354 13.36L24.5953 13.36C24.2554 13.36 23.9801 13.6353 23.9801 13.9752C23.9801 14.315 24.2554 14.5904 24.5953 14.5904L26.3354 14.5904C26.6753 14.5904 26.9506 14.315 26.9506 13.9752Z" fill="#CACCCF"/>
</g>
<defs>
<clipPath id="clip0">
<rect width="21" height="21" fill="white" transform="translate(14.9705) rotate(45)"/>
</clipPath>
</defs>
</svg>
